<svg width="280" height="80" viewBox="0 0 280 80" fill="none" xmlns="http://www.w3.org/2000/svg">
<path d="M63.5398 25.4597C63.5398 7.24187 51.7938 0 32.4411 0H0V78.3027H17.7867V38.4724V16.2942H32.5529C41.5022 16.2942 46.2006 18.1047 46.2006 26.8175C46.2006 35.5304 41.6141 38.4724 32.5529 38.4724H17.7867L44.5226 78.3027H65.4415L43.8514 47.7511C55.9329 45.0354 63.5398 37.0014 63.5398 25.4597ZM208.182 34.9646C205.497 44.4696 203.931 51.4851 202.589 57.9349H202.365C200.911 52.3904 199.009 45.1485 196.66 37.3409L190.06 16.4074H174.399L167.687 37.3409C165.226 45.1485 163.324 52.2772 161.982 57.9349H161.758C160.416 51.4851 159.073 44.017 156.276 34.6252L151.019 16.4074H134.239L153.815 78.3027H169.924L176.972 54.9929C179.433 47.0721 180.551 42.4328 182.117 35.7567H182.341C183.907 42.4328 185.026 47.0721 187.487 54.9929L194.535 78.3027H210.643L230.22 16.4074H213.552L208.182 34.9646ZM99.7843 65.1768C91.2825 65.1768 86.1366 57.8218 86.1366 47.2984C86.1366 36.8883 91.3943 29.4201 99.7843 29.4201C108.174 29.4201 113.32 36.8883 113.32 47.4116C113.432 57.9349 108.286 65.1768 99.7843 65.1768ZM99.7843 14.71C79.5366 14.71 69.5805 30.099 69.5805 47.2984C69.5805 64.7242 79.5366 79.8868 99.7843 79.8868C120.032 79.8868 129.988 64.7242 129.988 47.2984C129.988 30.2122 120.032 14.71 99.7843 14.71ZM280 59.5191C280 71.4003 270.939 80 257.179 80C241.966 80 235.589 73.0976 235.589 73.0976V57.5955H236.037C240.959 62.3479 249.349 65.5163 255.837 65.5163C260.983 65.5163 263.444 63.4795 263.444 60.4243C263.444 57.9349 262.102 56.6902 257.627 55.2192L251.251 53.0693C242.189 50.0141 234.918 45.7143 234.918 34.0594C234.918 22.5177 243.979 14.71 257.739 14.71C258.298 14.71 258.857 14.71 259.417 14.71C271.61 15.1627 278.21 20.1414 278.21 20.1414V36.0962H277.763C273.959 32.7016 266.576 29.1938 259.081 29.1938C253.712 29.1938 251.362 31.1174 251.362 33.7199C251.362 36.3225 253.376 37.6803 257.068 39.0382L263.22 41.3013C272.169 44.6959 280 48.8826 280 59.5191Z" fill="#3A032D"/>
</svg>
